<svg xmlns="http://www.w3.org/2000/svg" width="23.971" height="27.273" viewBox="0 0 23.971 27.273"><defs><style>.a{fill:#fff;}</style></defs><g transform="translate(-31)"><g transform="translate(35.794)"><g transform="translate(0)"><path class="a" d="M128.191,0a7.191,7.191,0,1,0,7.191,7.191A7.2,7.2,0,0,0,128.191,0Zm0,12.784a5.593,5.593,0,1,1,5.593-5.593A5.6,5.6,0,0,1,128.191,12.784Z" transform="translate(-121)"/></g></g><g transform="translate(31 16.034)"><g transform="translate(0)"><path class="a" d="M45.214,301H40.757A11.55,11.55,0,0,0,31,306.351v5.888H54.971v-5.888A11.553,11.553,0,0,0,45.214,301Zm8.159,9.642H32.6v-3.8a9.946,9.946,0,0,1,8.159-4.242h4.457a9.946,9.946,0,0,1,8.159,4.242Z" transform="translate(-31 -301)"/></g></g></g></svg>